<svg width="28" height="28" viewBox="0 0 28 28" fill="none" xmlns="http://www.w3.org/2000/svg">
<path d="M4.57806 25.291H23.4221C25.8476 25.291 27.0546 24.119 27.0546 21.717V10.3145C27.0546 7.924 25.8476 6.74 23.4221 6.74H20.9376V6.002C20.9376 3.717 19.8011 2.709 17.6326 2.709H10.3676C8.31656 2.709 7.05106 3.717 7.05106 6.002V6.74H4.57806C2.15256 6.74 0.945557 7.924 0.945557 10.3145V21.717C0.945557 24.119 2.15256 25.291 4.57806 25.291ZM8.86706 5.873C8.86706 4.9005 9.37106 4.408 10.3436 4.408H17.6566C18.6291 4.408 19.1216 4.9005 19.1216 5.873V6.74H8.86656L8.86706 5.873ZM2.83206 10.408C2.83206 9.213 3.44156 8.6155 4.60206 8.6155H23.3986C24.5471 8.6155 25.1681 9.213 25.1681 10.408V13.502H2.83206V10.408ZM4.60206 23.416C3.44156 23.416 2.83206 22.83 2.83206 21.623V15.26H9.37106V15.987C9.37106 16.948 9.92206 17.4985 10.8946 17.4985H17.1056C18.0666 17.4985 18.6291 16.9475 18.6291 15.987V15.26H25.1681V21.623C25.1681 22.83 24.5471 23.416 23.3986 23.416H4.60206Z" fill="#75797B"/>
</svg>
