<svg width="27" height="27" viewBox="0 0 27 27" fill="none" xmlns="http://www.w3.org/2000/svg">
<path d="M20.25 16.875V10.125C20.25 6.9435 20.25 5.35162 19.2611 4.36387C18.2734 3.375 16.6815 3.375 13.5 3.375H9C5.8185 3.375 4.22662 3.375 3.23887 4.36387C2.25 5.35162 2.25 6.9435 2.25 10.125V16.875C2.25 20.0565 2.25 21.6484 3.23887 22.6361C4.22662 23.625 5.8185 23.625 9 23.625H22.5M6.75 9H15.75M6.75 13.5H15.75M6.75 18H11.25" stroke="#75797B" stroke-width="1.5" stroke-linecap="round" stroke-linejoin="round"/>
<path d="M20.25 9H21.375C22.9658 9 23.7611 9 24.255 9.495C24.75 9.98887 24.75 10.7842 24.75 12.375V21.375C24.75 21.9717 24.5129 22.544 24.091 22.966C23.669 23.3879 23.0967 23.625 22.5 23.625C21.9033 23.625 21.331 23.3879 20.909 22.966C20.4871 22.544 20.25 21.9717 20.25 21.375V9Z" stroke="#75797B" stroke-width="1.5" stroke-linecap="round" stroke-linejoin="round"/>
</svg>
