<svg width="59" height="59" viewBox="0 0 59 59" fill="none" xmlns="http://www.w3.org/2000/svg">
<path d="M29.5013 0C13.2099 0 0 13.2073 0 29.5C0 45.7927 13.2086 59 29.5013 59C45.7953 59 59.0026 45.7927 59.0026 29.5C59.0026 13.2073 45.7953 0 29.5013 0ZM29.5013 8.82084C34.892 8.82084 39.2603 13.1904 39.2603 18.5786C39.2603 23.968 34.892 28.3363 29.5013 28.3363C24.1132 28.3363 19.7449 23.968 19.7449 18.5786C19.7449 13.1904 24.1132 8.82084 29.5013 8.82084ZM29.4948 51.2871C24.1183 51.2871 19.1941 49.3291 15.396 46.0882C14.4707 45.299 13.9369 44.1418 13.9369 42.9276C13.9369 37.463 18.3596 33.0895 23.8255 33.0895H35.1797C40.6469 33.0895 45.0528 37.463 45.0528 42.9276C45.0528 44.1431 44.5215 45.2977 43.5949 46.0869C39.7981 49.3291 34.8726 51.2871 29.4948 51.2871Z" fill="#6C7278"/>
</svg>
