<svg width="18" height="19" viewBox="0 0 18 19" fill="none" xmlns="http://www.w3.org/2000/svg">
<path d="M16.8758 9.23189C16.8758 8.5844 16.8222 8.1119 16.7062 7.6219H9.16151V10.5444H13.59C13.5008 11.2706 13.0187 12.3644 11.9472 13.0994L11.9322 13.1972L14.3177 15.0082L14.4829 15.0244C16.0008 13.6506 16.8758 11.6294 16.8758 9.23189Z" fill="#4285F4"/>
<path d="M9.161 16.932C11.3306 16.932 13.152 16.2319 14.4824 15.0245L11.9467 13.0994C11.2681 13.5632 10.3574 13.8869 9.161 13.8869C7.03602 13.8869 5.23247 12.5132 4.58956 10.6144L4.49532 10.6223L2.01488 12.5035L1.98244 12.5919C3.30385 15.1644 6.01813 16.932 9.161 16.932Z" fill="#34A853"/>
<path d="M4.59003 10.6145C4.42039 10.1245 4.32221 9.59945 4.32221 9.05697C4.32221 8.51444 4.42039 7.98946 4.5811 7.49947L4.57661 7.39511L2.06507 5.48363L1.9829 5.52194C1.43828 6.58945 1.12578 7.78823 1.12578 9.05697C1.12578 10.3257 1.43828 11.5244 1.9829 12.5919L4.59003 10.6145Z" fill="#FBBC05"/>
<path d="M9.16104 4.22697C10.6699 4.22697 11.6878 4.86572 12.2682 5.3995L14.536 3.22949C13.1432 1.96074 11.3307 1.18199 9.16104 1.18199C6.01815 1.18199 3.30385 2.94948 1.98244 5.52196L4.58065 7.49948C5.23249 5.60074 7.03605 4.22697 9.16104 4.22697Z" fill="#EB4335"/>
</svg>
