<svg width="16" height="17" viewBox="0 0 16 17" fill="none" xmlns="http://www.w3.org/2000/svg">
<g clip-path="url(#clip0_4832_1252)">
<path d="M6.59984 3.32652C7.05872 3.21911 7.52855 3.16541 7.99984 3.16652C12.6665 3.16652 15.3332 8.49985 15.3332 8.49985C14.9285 9.25693 14.4459 9.96968 13.8932 10.6265M9.41317 9.91319C9.23007 10.1097 9.00927 10.2673 8.76394 10.3766C8.51861 10.4859 8.25377 10.5447 7.98523 10.5494C7.71669 10.5542 7.44995 10.5048 7.20091 10.4042C6.95188 10.3036 6.72565 10.1539 6.53573 9.96396C6.34582 9.77404 6.1961 9.54782 6.09551 9.29878C5.99492 9.04975 5.94552 8.783 5.95026 8.51446C5.955 8.24592 6.01378 7.98108 6.12309 7.73575C6.2324 7.49042 6.39001 7.26962 6.5865 7.08652M11.9598 12.4599C10.8202 13.3285 9.43258 13.8098 7.99984 13.8332C3.33317 13.8332 0.666504 8.49985 0.666504 8.49985C1.49576 6.95445 2.64593 5.60426 4.03984 4.53985L11.9598 12.4599Z" stroke="#4F637D" stroke-width="1.33" stroke-linecap="round" stroke-linejoin="round"/>
<path d="M0.666504 1.1665L15.3332 15.8332" stroke="#4F637D" stroke-width="1.33" stroke-linecap="round" stroke-linejoin="round"/>
</g>
<defs>
<clipPath id="clip0_4832_1252">
<rect width="16" height="16" fill="white" transform="translate(0 0.5)"/>
</clipPath>
</defs>
</svg>
