<svg width="17" height="20" viewBox="0 0 17 20" fill="none" xmlns="http://www.w3.org/2000/svg">
<path fill-rule="evenodd" clip-rule="evenodd" d="M14.777 3.03036C15.189 3.17459 15.4642 3.56296 15.4642 3.99942V10.3841C15.4642 12.1685 14.8157 13.8719 13.6703 15.1917C13.0944 15.8562 12.3657 16.3738 11.5918 16.7923L8.23776 18.6041L4.87811 16.7914C4.10325 16.3728 3.37362 15.8562 2.79672 15.1907C1.65044 13.871 1 12.1666 1 10.3803V3.99942C1 3.56296 1.27526 3.17459 1.6872 3.03036L7.89181 0.849981C8.11239 0.772683 8.35277 0.772683 8.57241 0.849981L14.777 3.03036Z" stroke="#CF4044" stroke-width="1.1312" stroke-linecap="round" stroke-linejoin="round"/>
<path d="M5.78174 9.43478L7.56526 11.2192L11.2398 7.54474" stroke="#CF4044" stroke-width="1.1312" stroke-linecap="round" stroke-linejoin="round"/>
</svg>
